<svg viewBox="0 0 36.4141 36.4165" xmlns="http://www.w3.org/2000/svg" xmlns:xlink="http://www.w3.org/1999/xlink" width="36.414062" height="36.416504" fill="none">
	<rect id="stack 1" width="36.416668" height="36.416672" x="0.000000" y="0.000000" fill="rgb(255,255,255)" fill-opacity="0" />
	<path id="Vector" d="M25.0399 15.1736L11.3837 15.1736C10.9649 15.1736 10.625 14.8337 10.625 14.4149L10.625 0.758681C10.625 0.339889 10.9649 0 11.3837 0L25.0399 0C25.4587 0 25.7986 0.339889 25.7986 0.758681L25.7986 14.4149C25.7986 14.8337 25.4587 15.1736 25.0399 15.1736ZM12.1424 13.6562L24.2812 13.6562L24.2812 1.51736L12.1424 1.51736L12.1424 13.6562Z" fill="rgb(255,255,255)" fill-rule="nonzero" />
	<path id="Vector" d="M20.4905 6.06945L15.9384 6.06945C15.5196 6.06945 15.1797 5.72956 15.1797 5.31076L15.1797 0.758681C15.1797 0.339889 15.5196 0 15.9384 0L20.4905 0C20.9092 0 21.2491 0.339889 21.2491 0.758681L21.2491 5.31076C21.2491 5.72956 20.9092 6.06945 20.4905 6.06945ZM16.6971 4.55208L19.7318 4.55208L19.7318 1.51736L16.6971 1.51736L16.6971 4.55208Z" fill="rgb(255,255,255)" fill-rule="nonzero" />
	<path id="Vector" d="M18.2127 28.8299L3.79774 28.8299C3.37895 28.8299 3.03906 28.49 3.03906 28.0712L3.03906 14.4149C3.03906 13.9961 3.37895 13.6562 3.79774 13.6562L18.2127 13.6562C18.6315 13.6562 18.9714 13.9961 18.9714 14.4149L18.9714 28.0712C18.9714 28.49 18.6315 28.8299 18.2127 28.8299ZM4.55642 27.3125L17.454 27.3125L17.454 15.1736L4.55642 15.1736L4.55642 27.3125Z" fill="rgb(255,255,255)" fill-rule="nonzero" />
	<path id="Vector" d="M12.8967 19.7257L8.34462 19.7257C7.92583 19.7257 7.58594 19.3858 7.58594 18.967L7.58594 14.4149C7.58594 13.9961 7.92583 13.6562 8.34462 13.6562L12.8967 13.6562C13.3155 13.6562 13.6554 13.9961 13.6554 14.4149L13.6554 18.967C13.6554 19.3858 13.3155 19.7257 12.8967 19.7257ZM9.1033 18.2083L12.138 18.2083L12.138 15.1736L9.1033 15.1736L9.1033 18.2083Z" fill="rgb(255,255,255)" fill-rule="nonzero" />
	<path id="Vector" d="M32.6267 28.8299L18.2118 28.8299C17.793 28.8299 17.4531 28.49 17.4531 28.0712L17.4531 14.4149C17.4531 13.9961 17.793 13.6562 18.2118 13.6562L32.6267 13.6562C33.0455 13.6562 33.3854 13.9961 33.3854 14.4149L33.3854 28.0712C33.3854 28.49 33.0455 28.8299 32.6267 28.8299ZM18.9705 27.3125L31.8681 27.3125L31.8681 15.1736L18.9705 15.1736L18.9705 27.3125Z" fill="rgb(255,255,255)" fill-rule="nonzero" />
	<path id="Vector" d="M28.0764 19.7257L23.5243 19.7257C23.1055 19.7257 22.7656 19.3858 22.7656 18.967L22.7656 14.4149C22.7656 13.9961 23.1055 13.6562 23.5243 13.6562L28.0764 13.6562C28.4952 13.6562 28.8351 13.9961 28.8351 14.4149L28.8351 18.967C28.8351 19.3858 28.4952 19.7257 28.0764 19.7257ZM24.283 18.2083L27.3177 18.2083L27.3177 15.1736L24.283 15.1736L24.283 18.2083Z" fill="rgb(255,255,255)" fill-rule="nonzero" />
	<path id="Vector" d="M35.658 36.4167L29.5885 36.4167C29.1697 36.4167 28.8299 36.0768 28.8299 35.658L28.8299 33.3819L22.7604 33.3819L22.7604 35.658C22.7604 36.0768 22.4205 36.4167 22.0017 36.4167L14.4149 36.4167C13.9961 36.4167 13.6562 36.0768 13.6562 35.658L13.6562 33.3819L7.5868 33.3819L7.5868 35.658C7.5868 36.0768 7.24692 36.4167 6.82812 36.4167L0.75868 36.4167C0.339889 36.4167 0 36.0768 0 35.658L0 28.0712C0 27.6524 0.339889 27.3125 0.75868 27.3125L35.658 27.3125C36.0768 27.3125 36.4167 27.6524 36.4167 28.0712L36.4167 35.658C36.4167 36.0768 36.0768 36.4167 35.658 36.4167ZM30.3472 34.8993L34.8993 34.8993L34.8993 28.8299L1.51736 28.8299L1.51736 34.8993L6.06944 34.8993L6.06944 32.6233C6.06944 32.2045 6.40933 31.8646 6.82812 31.8646L14.4149 31.8646C14.8337 31.8646 15.1736 32.2045 15.1736 32.6233L15.1736 34.8993L21.2431 34.8993L21.2431 32.6233C21.2431 32.2045 21.5829 31.8646 22.0017 31.8646L29.5885 31.8646C30.0073 31.8646 30.3472 32.2045 30.3472 32.6233L30.3472 34.8993Z" fill="rgb(255,255,255)" fill-rule="nonzero" />
</svg>
